#Comment line ignore any data following # character 
#Hierarchical Translation and Rotation (.htr) file 
[Header]	
#Header keywords are followed by a single value 
FileType HTR		#Single word string
DataType HTRS		#Translation followed by rotation and scale data
FileVersion 1		#integer
NumSegments 64		#integer
NumFrames 3		#integer
DataFrameRate 30		#integer, data frame rate in this file
EulerRotationOrder ZYX
CalibrationUnits mm
RotationUnits Degrees
GlobalAxisofGravity Y
BoneLengthAxis Y
ScaleFactor 1.00
[SegmentNames&Hierarchy]
#CHILD	PARENT
Pinger_Root GLOBAL
Pelvis Pinger_Root
L_Hip Pelvis
R_Hip Pelvis
Rear_Leg01 Pelvis
Spine1 Pelvis
L_Leg01 L_Hip
L_Leg02 L_Leg01
L_Leg03 L_Leg02
L_Foot L_Leg03
L_Toe1_01 L_Foot
L_Toe2_01 L_Foot
L_Toe3_01 L_Foot
planeAlignerLeft L_Foot
L_Toe1_02 L_Toe1_01
L_Toe1_03 L_Toe1_02
L_Toe2_02 L_Toe2_01
L_Toe2_03 L_Toe2_02
L_Toe3_02 L_Toe3_01
L_Toe3_03 L_Toe3_02
planeLockWeightLeft planeAlignerLeft
R_Leg01 R_Hip
R_Leg02 R_Leg01
R_Leg03 R_Leg02
R_Foot R_Leg03
planeAlignerRight R_Foot
R_Toe1_01 R_Foot
R_Toe2_01 R_Foot
R_Toe3_01 R_Foot
planeLockWeightRight planeAlignerRight
R_Toe1_02 R_Toe1_01
R_Toe1_03 R_Toe1_02
R_Toe2_02 R_Toe2_01
R_Toe2_03 R_Toe2_02
R_Toe3_02 R_Toe3_01
R_Toe3_03 R_Toe3_02
Rear_Leg02 Rear_Leg01
Rear_Leg03 Rear_Leg02
Rear_Leg04 Rear_Leg03
Rear_Foot Rear_Leg04
planeAlignerCenter Rear_Foot
Rear_Toe1_01 Rear_Foot
Rear_Toe2_01 Rear_Foot
Rear_Toe3_01 Rear_Foot
planeLockWeightCenter planeAlignerCenter
Rear_Toe1_02 Rear_Toe1_01
Rear_Toe1_03 Rear_Toe1_02
Rear_Toe2_02 Rear_Toe2_01
Rear_Toe2_03 Rear_Toe2_02
Rear_Toe3_02 Rear_Toe3_01
Rear_Toe3_03 Rear_Toe3_02
Back_Bone Spine1
Head Spine1
Motor_Bone Back_Bone
Ping_Mechanism Back_Bone
BN_LookIK Head
bottomMouth Head
L_Mouth01 Head
L_mouthFront Head
mouthGun Head
R_Mouth01 Head
R_mouthFront Head
TopMouth Head
weapon_bone Head
[BasePosition]
#SegmentName Tx, Ty, Tz, Rx, Ry, Rz, BoneLength
Pinger_Root 0.000000 0.000000 0.000000 -90.000000 0.000000 0.000000 10.000000 
Pelvis 0.000000 0.000000 0.000000 0.000000 0.000000 0.000000 10.000000 
L_Hip 0.000000 0.000000 0.000000 0.000000 0.000000 0.000000 10.000000 
R_Hip 0.000000 0.000000 0.000000 0.000000 0.000000 0.000000 10.000000 
Rear_Leg01 0.000000 0.000000 0.000000 0.000000 0.000000 0.000000 10.000000 
Spine1 0.000000 0.000000 0.000000 0.000000 0.000000 0.000000 10.000000 
L_Leg01 0.000000 0.000000 0.000000 0.000000 0.000000 0.000000 10.000000 
L_Leg02 0.000000 0.000000 0.000000 0.000000 0.000000 0.000000 10.000000 
L_Leg03 0.000000 0.000000 0.000000 0.000000 0.000000 0.000000 10.000000 
L_Foot 0.000000 0.000000 0.000000 0.000000 0.000000 0.000000 10.000000 
L_Toe1_01 0.000000 0.000000 0.000000 0.000000 0.000000 0.000000 10.000000 
L_Toe2_01 0.000000 0.000000 0.000000 0.000000 0.000000 0.000000 10.000000 
L_Toe3_01 0.000000 0.000000 0.000000 0.000000 0.000000 0.000000 10.000000 
planeAlignerLeft 0.000000 0.000000 0.000000 0.000000 0.000000 0.000000 10.000000 
L_Toe1_02 0.000000 0.000000 0.000000 0.000000 0.000000 0.000000 10.000000 
L_Toe1_03 0.000000 0.000000 0.000000 0.000000 0.000000 0.000000 10.000000 
L_Toe2_02 0.000000 0.000000 0.000000 0.000000 0.000000 0.000000 10.000000 
L_Toe2_03 0.000000 0.000000 0.000000 0.000000 0.000000 0.000000 10.000000 
L_Toe3_02 0.000000 0.000000 0.000000 0.000000 0.000000 0.000000 10.000000 
L_Toe3_03 0.000000 0.000000 0.000000 0.000000 0.000000 0.000000 10.000000 
planeLockWeightLeft 0.000000 0.000000 0.000000 0.000000 0.000000 0.000000 10.000000 
R_Leg01 0.000000 0.000000 0.000000 0.000000 0.000000 0.000000 10.000000 
R_Leg02 0.000000 0.000000 0.000000 0.000000 0.000000 0.000000 10.000000 
R_Leg03 0.000000 0.000000 0.000000 0.000000 0.000000 0.000000 10.000000 
R_Foot 0.000000 0.000000 0.000000 0.000000 0.000000 0.000000 10.000000 
planeAlignerRight 0.000000 0.000000 0.000000 0.000000 0.000000 0.000000 10.000000 
R_Toe1_01 0.000000 0.000000 0.000000 0.000000 0.000000 0.000000 10.000000 
R_Toe2_01 0.000000 0.000000 0.000000 0.000000 0.000000 0.000000 10.000000 
R_Toe3_01 0.000000 0.000000 0.000000 0.000000 0.000000 0.000000 10.000000 
planeLockWeightRight 0.000000 0.000000 0.000000 0.000000 0.000000 0.000000 10.000000 
R_Toe1_02 0.000000 0.000000 0.000000 0.000000 0.000000 0.000000 10.000000 
R_Toe1_03 0.000000 0.000000 0.000000 0.000000 0.000000 0.000000 10.000000 
R_Toe2_02 0.000000 0.000000 0.000000 0.000000 0.000000 0.000000 10.000000 
R_Toe2_03 0.000000 0.000000 0.000000 0.000000 0.000000 0.000000 10.000000 
R_Toe3_02 0.000000 0.000000 0.000000 0.000000 0.000000 0.000000 10.000000 
R_Toe3_03 0.000000 0.000000 0.000000 0.000000 0.000000 0.000000 10.000000 
Rear_Leg02 0.000000 0.000000 0.000000 0.000000 0.000000 0.000000 10.000000 
Rear_Leg03 0.000000 0.000000 0.000000 0.000000 0.000000 0.000000 10.000000 
Rear_Leg04 0.000000 0.000000 0.000000 0.000000 0.000000 0.000000 10.000000 
Rear_Foot 0.000000 0.000000 0.000000 0.000000 0.000000 0.000000 10.000000 
planeAlignerCenter 0.000000 0.000000 0.000000 0.000000 0.000000 0.000000 10.000000 
Rear_Toe1_01 0.000000 0.000000 0.000000 0.000000 0.000000 0.000000 10.000000 
Rear_Toe2_01 0.000000 0.000000 0.000000 0.000000 0.000000 0.000000 10.000000 
Rear_Toe3_01 0.000000 0.000000 0.000000 0.000000 0.000000 0.000000 10.000000 
planeLockWeightCenter 0.000000 0.000000 0.000000 0.000000 0.000000 0.000000 10.000000 
Rear_Toe1_02 0.000000 0.000000 0.000000 0.000000 0.000000 0.000000 10.000000 
Rear_Toe1_03 0.000000 0.000000 0.000000 0.000000 0.000000 0.000000 10.000000 
Rear_Toe2_02 0.000000 0.000000 0.000000 0.000000 0.000000 0.000000 10.000000 
Rear_Toe2_03 0.000000 0.000000 0.000000 0.000000 0.000000 0.000000 10.000000 
Rear_Toe3_02 0.000000 0.000000 0.000000 0.000000 0.000000 0.000000 10.000000 
Rear_Toe3_03 0.000000 0.000000 0.000000 0.000000 0.000000 0.000000 10.000000 
Back_Bone 0.000000 0.000000 0.000000 0.000000 0.000000 0.000000 10.000000 
Head 0.000000 0.000000 0.000000 0.000000 0.000000 0.000000 10.000000 
Motor_Bone 0.000000 0.000000 0.000000 0.000000 0.000000 0.000000 10.000000 
Ping_Mechanism 0.000000 0.000000 0.000000 0.000000 0.000000 0.000000 10.000000 
BN_LookIK 0.000000 0.000000 0.000000 0.000000 0.000000 0.000000 10.000000 
bottomMouth 0.000000 0.000000 0.000000 0.000000 0.000000 0.000000 10.000000 
L_Mouth01 0.000000 0.000000 0.000000 0.000000 0.000000 0.000000 10.000000 
L_mouthFront 0.000000 0.000000 0.000000 0.000000 0.000000 0.000000 10.000000 
mouthGun 0.000000 0.000000 0.000000 0.000000 0.000000 0.000000 10.000000 
R_Mouth01 0.000000 0.000000 0.000000 0.000000 0.000000 0.000000 10.000000 
R_mouthFront 0.000000 0.000000 0.000000 0.000000 0.000000 0.000000 10.000000 
TopMouth 0.000000 0.000000 0.000000 0.000000 0.000000 0.000000 10.000000 
weapon_bone 0.000000 0.000000 0.000000 0.000000 0.000000 0.000000 10.000000 
#Beginning of Data. Separated by tabs
#Fr	Tx	Ty	Tz	Rx	Ry	Rz	SF
[Pinger_Root]
38 -4796.294922 0.000000 0.000000 -0.000075 -0.000000 -0.000020 4796.294434
39 -4925.924316 0.000000 0.000000 -0.000075 -0.000000 -0.000020 4925.924316
40 -5055.554199 0.000000 0.000000 -0.000075 -0.000000 -0.000020 5055.554199
[Pelvis]
38 -508.651093 502.693298 5286.961426 -6.696407 -88.920074 74.574539 5335.109375
39 -525.735229 508.429413 5273.020020 -91.412308 -86.592850 157.332550 5323.498535
40 -545.038940 501.283630 5236.276855 -99.999435 -83.015511 163.236084 5288.378418
[L_Hip]
38 5.766392 125.831482 872.656799 -178.250168 -81.786369 87.376007 881.701050
39 5.766392 125.831482 872.656799 -178.250168 -81.786369 87.376007 881.701050
40 5.766392 125.831482 872.656799 -178.250168 -81.786369 87.376007 881.701050
[R_Hip]
38 5.765438 125.836372 -872.654907 -1.748770 81.786041 87.376961 881.699829
39 5.765438 125.836372 -872.654907 -1.748770 81.786041 87.376961 881.699829
40 5.765438 125.836372 -872.654907 -1.748770 81.786041 87.376961 881.699829
[Rear_Leg01]
38 -192.298416 -925.602966 -0.001907 -153.504227 12.930395 -154.823120 945.367432
39 -192.298416 -925.602966 -0.001907 -155.089600 13.329545 -157.140533 945.367432
40 -192.298416 -925.602966 -0.001907 -156.953125 14.256367 -159.704514 945.367432
[Spine1]
38 290.604584 5.007505 0.000477 -57.145046 25.086918 16.722189 290.647736
39 290.604584 5.007505 0.000477 -54.645336 25.640015 14.542948 290.647736
40 290.604584 5.007505 0.000477 -51.614532 25.850649 12.236972 290.647736
[L_Leg01]
38 761.932007 -0.002384 -0.069261 89.417740 -10.983876 -68.009415 761.932068
39 761.932007 -0.002384 -0.069261 82.468300 -12.214802 -61.577927 761.932068
40 761.932007 -0.002384 -0.069261 74.445503 -18.594809 -53.815170 761.932068
[L_Leg02]
38 1441.140503 -0.000954 -0.000715 4.212428 0.313311 -130.090881 1441.140503
39 1441.140503 -0.000954 -0.000715 4.326482 0.423348 -127.940445 1441.140503
40 1441.140503 -0.000954 -0.000715 4.235788 0.299399 -131.071442 1441.140503
[L_Leg03]
38 1686.963989 -0.000715 -0.000954 -0.064015 0.032654 127.265411 1686.963989
39 1686.963989 -0.000715 -0.000954 -0.070204 0.035761 128.685257 1686.963989
40 1686.963989 -0.000715 -0.000954 -0.064090 0.032506 127.000374 1686.963989
[L_Foot]
38 3041.570068 -30.715107 11.297464 -16.717672 9.643239 76.707794 3041.746094
39 3041.570068 -30.715107 11.297464 -16.975496 8.401169 80.627289 3041.746094
40 3041.570068 -30.715107 11.297464 -18.210581 7.219222 85.355141 3041.746094
[L_Toe1_01]
38 -188.216690 -224.732346 -21.137953 88.669533 -1.678320 -139.846207 293.899567
39 -188.216690 -224.732346 -21.137953 88.678780 -1.705381 -139.803909 293.899567
40 -188.216690 -224.732346 -21.137953 88.688011 -1.732450 -139.761597 293.899567
[L_Toe2_01]
38 200.746536 -219.926590 148.838394 -73.539177 -3.722984 -74.150429 332.896027
39 200.746536 -219.926590 148.838394 -73.664017 -3.694314 -73.300995 332.896027
40 200.746536 -219.926590 148.838394 -73.752769 -3.668532 -72.776360 332.896027
[L_Toe3_01]
38 188.832520 -219.859131 -191.078659 -110.949448 4.435057 -75.233879 347.140900
39 188.832520 -219.859131 -191.078659 -110.790268 4.402562 -74.379257 347.140900
40 188.832520 -219.859131 -191.078659 -110.676094 4.371584 -73.853394 347.140900
[planeAlignerLeft]
38 62.795086 -765.626831 -4.448821 0.000000 -90.000000 -90.001900 768.210571
39 88.224197 -762.172791 -6.997041 0.000000 -90.000000 -90.001900 767.293884
40 109.768425 -760.371399 -9.086889 0.000000 -90.000000 -90.001900 768.307373
[L_Toe1_02]
38 413.761139 0.000477 0.000000 0.001463 -16.705837 0.001463 413.761139
39 413.761139 0.000477 0.000000 0.001467 -16.247591 0.001467 413.761139
40 413.761139 0.000477 0.000000 0.001472 -15.789362 0.001472 413.761139
[L_Toe1_03]
38 464.317322 0.000358 -0.000089 -179.996140 78.261055 -179.992630 464.317322
39 464.317322 0.000358 -0.000089 -179.996689 76.993980 -179.993164 464.317322
40 464.317322 0.000358 -0.000089 -179.997131 75.726982 -179.993607 464.317322
[L_Toe2_02]
38 342.235809 -0.000477 0.000238 0.001180 -77.760719 0.001180 342.235809
39 342.235809 -0.000477 0.000238 0.001180 -77.681297 0.001180 342.235809
40 342.235809 -0.000477 0.000238 0.001181 -77.601868 0.001181 342.235809
[L_Toe2_03]
38 420.210846 -0.000715 0.000000 -179.996750 76.850540 -179.993225 420.210846
39 420.210846 -0.000715 0.000000 -179.996597 77.239807 -179.993073 420.210846
40 420.210846 -0.000715 0.000000 -179.996429 77.629143 -179.992905 420.210846
[L_Toe3_02]
38 329.270111 0.000954 0.000000 0.001177 -81.443886 0.001177 329.270111
39 329.270111 0.000954 0.000000 0.001177 -81.370255 0.001177 329.270111
40 329.270111 0.000954 0.000000 0.001177 -81.296600 0.001177 329.270111
[L_Toe3_03]
38 439.137451 -0.001907 0.000954 -179.997498 74.517731 -179.993973 439.137451
39 439.137451 -0.001907 0.000954 -179.997391 74.865524 -179.993881 439.137451
40 439.137451 -0.001907 0.000954 -179.997299 75.213287 -179.993774 439.137451
[planeLockWeightLeft]
38 -0.000267 0.098763 0.076075 -0.011826 -0.004376 0.005620 0.124665
39 -0.000305 0.098877 0.076065 -0.011826 -0.004376 0.005620 0.124750
40 103.998741 0.098267 0.076141 -0.011826 -0.004376 0.005620 103.998817
[R_Leg01]
38 761.455627 -0.001907 -0.000358 141.082031 -17.675262 77.345268 761.455688
39 761.455627 -0.001907 -0.000358 140.308060 -20.402115 77.767876 761.455688
40 761.455627 -0.001907 -0.000358 139.439514 -24.504934 77.005348 761.455688
[R_Leg02]
38 1441.140625 0.000000 -0.000238 0.210603 0.024341 -86.737839 1441.140625
39 1441.140625 0.000000 -0.000238 0.206759 0.023279 -88.030579 1441.140625
40 1441.140625 0.000000 -0.000238 0.209681 0.014071 -91.327980 1441.140625
[R_Leg03]
38 1686.963989 0.000954 0.001431 -0.031815 0.010058 100.875565 1686.963989
39 1686.963989 0.000954 0.001431 -0.028214 0.010066 102.257240 1686.963989
40 1686.963989 0.000954 0.001431 -0.024615 0.009987 103.638901 1686.963989
[R_Foot]
38 3041.560059 -30.531288 -11.204481 -6.336693 -7.819988 55.701015 3041.734131
39 3041.560059 -30.531288 -11.204481 -5.325130 -7.214381 55.881340 3041.734131
40 3041.560059 -30.531288 -11.204481 -4.312947 -6.612021 56.072155 3041.734131
[planeAlignerRight]
38 29.298689 -670.709900 12.636826 0.000000 -89.960434 -90.005180 671.468445
39 23.983978 -698.050537 9.999877 0.000000 -89.960434 -90.005180 698.534058
40 18.669264 -725.391235 7.362929 0.000000 -89.960434 -90.005180 725.668823
[R_Toe1_01]
38 -188.383347 -224.864899 21.052242 90.758179 1.374865 -162.147171 294.101532
39 -188.383347 -224.864899 21.052242 90.802177 1.467227 -159.768921 294.101532
40 -188.383347 -224.864899 21.052242 90.850044 1.557759 -157.388443 294.101532
[R_Toe2_01]
38 200.637817 -220.002121 -148.787384 -102.598068 10.451586 -48.626324 332.857574
39 200.637817 -220.002121 -148.787384 -103.039909 10.246863 -50.610237 332.857574
40 200.637817 -220.002121 -148.787384 -103.473969 10.027230 -52.591167 332.857574
[R_Toe3_01]
38 188.606735 -220.092957 191.126343 -72.991714 -14.378540 -51.024570 347.192566
39 188.606735 -220.092957 191.126343 -72.566261 -13.783608 -52.845627 347.192566
40 188.606735 -220.092957 191.126343 -72.123734 -13.184818 -54.736469 347.192566
[planeLockWeightRight]
38 999.999695 -0.000179 0.076257 -0.011823 -0.004379 -0.000027 999.999695
39 999.999695 -0.000168 0.076251 -0.011823 -0.004379 -0.000027 999.999695
40 999.999695 -0.000158 0.076245 -0.011823 -0.004379 -0.000027 999.999695
[R_Toe1_02]
38 413.762085 0.000477 -0.000119 0.001415 -22.028307 0.001415 413.762085
39 413.762085 0.000477 -0.000119 0.001410 -22.691141 0.001410 413.762085
40 413.762085 0.000477 -0.000119 0.001405 -23.354013 0.001405 413.762085
[R_Toe1_03]
38 464.317810 0.000000 0.001088 -0.010878 82.778465 -0.007374 464.317810
39 464.317810 0.000000 0.001088 0.002414 79.560364 0.004171 464.317810
40 464.317810 0.000000 0.001088 0.009870 76.342194 0.009870 464.317810
[R_Toe2_02]
38 342.234741 -0.000954 0.000238 -0.002344 -74.804741 -0.002344 342.234741
39 342.234741 -0.000954 0.000238 -0.001640 -74.007210 -0.001640 342.234741
40 342.234741 -0.000954 0.000238 -0.000935 -73.209526 -0.000935 342.234741
[R_Toe2_03]
38 420.210846 0.000715 -0.000268 -179.969955 87.671486 -179.973450 420.210846
39 420.210846 0.000715 -0.000268 0.000000 89.903091 -0.003497 420.210846
40 420.210846 0.000715 -0.000268 -0.029175 87.869896 -0.032673 420.210846
[R_Toe3_02]
38 329.270355 -0.000477 -0.000954 0.001180 -78.292625 0.001180 329.270355
39 329.270355 -0.000477 -0.000954 0.001180 -77.817520 0.001180 329.270355
40 329.270355 -0.000477 -0.000954 0.001181 -77.164101 0.001181 329.270355
[R_Toe3_03]
38 439.137939 0.000238 0.001431 -179.985077 86.048737 -179.981567 439.137939
39 439.137939 0.000238 0.001431 -179.970428 87.895508 -179.966934 439.137939
40 439.137939 0.000238 0.001431 0.000000 89.739807 0.003502 439.137939
[Rear_Leg02]
38 1162.777710 -0.029802 0.005960 -0.306195 -4.566730 -91.122215 1162.777710
39 1162.777710 -0.029802 0.005960 -0.748750 -4.650908 -85.194527 1162.777710
40 1162.777710 -0.029802 0.005960 -1.190970 -4.726230 -79.635422 1162.777710
[Rear_Leg03]
38 607.192505 -0.013351 -0.073195 0.007391 -0.000330 58.320793 607.192505
39 607.192505 -0.013351 -0.073195 0.007786 0.000547 56.026684 607.192505
40 607.192505 -0.013351 -0.073195 0.008145 0.001439 53.732555 607.192505
[Rear_Leg04]
38 995.874512 -0.020504 -0.011921 -0.037925 -0.016690 47.334126 995.874573
39 995.874512 -0.020504 -0.011921 -0.036362 -0.015740 43.188820 995.874573
40 995.874512 -0.020504 -0.011921 -0.035321 -0.015351 39.542484 995.874573
[Rear_Foot]
38 3096.176270 -0.067472 -0.041425 -12.722694 70.560921 172.314758 3096.176270
39 3096.176270 -0.067472 -0.041425 -12.248708 69.277199 174.362564 3096.176270
40 3096.176270 -0.067472 -0.041425 -11.923804 67.988625 176.267731 3096.176270
[planeAlignerCenter]
38 1.126251 91.533302 -713.203186 0.000009 0.000003 -179.999985 719.053833
39 1.121216 96.546722 -725.158081 0.000009 0.000003 -179.999985 731.557800
40 1.113606 100.837814 -743.292358 0.000009 0.000003 -179.999985 750.101990
[Rear_Toe1_01]
38 0.653352 83.966492 -371.173737 0.058381 23.068665 90.029449 380.553192
39 0.653352 83.966492 -371.173737 0.059336 24.259817 90.031883 380.553192
40 0.653352 83.966492 -371.173737 0.060353 25.450968 90.034325 380.553192
[Rear_Toe2_01]
38 178.200760 -294.826019 -362.060547 1.209138 47.347397 -69.389580 499.765686
39 178.200760 -294.826019 -362.060547 1.341118 48.393745 -69.209976 499.765686
40 178.200760 -294.826019 -362.060547 1.480937 49.439812 -69.022858 499.765686
[Rear_Toe3_01]
38 -153.359680 -308.780914 -362.060852 -1.489771 47.357975 -113.149117 499.952881
39 -153.359680 -308.780914 -362.060852 -1.638715 48.398167 -113.349220 499.952881
40 -153.359680 -308.780914 -362.060852 -1.796380 49.437988 -113.557678 499.952881
[planeLockWeightCenter]
38 1000.000000 0.000087 0.076076 -0.011814 -0.004373 -0.000015 1000.000000
39 1000.000122 0.000074 0.076067 -0.011814 -0.004373 -0.000015 1000.000122
40 1000.000122 0.000062 0.076057 -0.011814 -0.004373 -0.000015 1000.000122
[Rear_Toe1_02]
38 379.707825 0.194073 0.000477 -0.000767 -33.624729 0.000838 379.707855
39 379.707825 0.194073 0.000477 -0.000767 -33.624729 0.000838 379.707855
40 379.707825 0.194073 0.000477 -0.000767 -33.624729 0.000838 379.707855
[Rear_Toe1_03]
38 500.129700 0.165701 0.000119 -0.004891 68.716423 -0.001333 500.129761
39 500.129700 0.165701 0.000119 -0.004626 66.656075 -0.001056 500.129761
40 500.129700 0.165701 0.000119 -0.004340 63.884537 -0.000749 500.129761
[Rear_Toe2_02]
38 340.494507 0.000238 -0.000954 0.001174 -85.890053 0.001174 340.494507
39 340.494507 0.000238 -0.000954 0.001174 -85.611885 0.001174 340.494507
40 340.494507 0.000238 -0.000954 0.001175 -85.333519 0.001175 340.494507
[Rear_Toe2_03]
38 433.103577 0.000000 0.000238 179.987869 78.900024 179.987869 433.103546
39 433.103577 0.000000 0.000238 179.987549 79.188484 179.987549 433.103546
40 433.103577 0.000000 0.000238 179.986389 80.106087 179.986389 433.103546
[Rear_Toe3_02]
38 340.494141 -0.000358 -0.000477 0.001174 -85.677452 0.001174 340.494171
39 340.494141 -0.000358 -0.000477 0.001174 -85.674095 0.001174 340.494171
40 340.494141 -0.000358 -0.000477 0.001175 -85.254135 0.001175 340.494171
[Rear_Toe3_03]
38 433.103577 0.001431 -0.000238 -179.995667 79.188515 -179.992142 433.103546
39 433.103577 0.001431 -0.000238 -179.995483 79.490540 -179.991974 433.103546
40 433.103577 0.001431 -0.000238 -179.994873 80.416611 -179.991379 433.103546
[Back_Bone]
38 1312.175781 -701.934692 0.000954 2.119731 3.088091 -82.075951 1488.125488
39 1312.175781 -701.934692 0.000954 1.861840 3.118276 -81.621895 1488.125488
40 1312.175781 -701.934692 0.000954 1.604195 3.150501 -81.167984 1488.125488
[Head]
38 1406.159424 809.709290 0.001431 -4.594400 4.853569 -0.376453 1622.625488
39 1406.159424 809.709290 0.001431 -4.779721 5.178771 -0.056063 1622.625488
40 1406.159424 809.709290 0.001431 -5.057023 5.483171 1.120825 1622.625488
[Motor_Bone]
38 1158.364380 -417.834747 0.000477 -5.513593 1.191234 -104.796593 1231.419434
39 1158.364380 -417.834747 0.000477 -3.495568 0.584013 -105.401451 1231.419434
40 1158.364380 -417.834747 0.000477 0.251812 -0.541796 -106.527893 1231.419434
[Ping_Mechanism]
38 1219.093384 -435.641449 0.204952 0.000103 -0.000053 82.120995 1294.593506
39 1222.126099 -438.001648 -15.652895 0.000103 -0.000053 82.120995 1298.338379
40 1229.510742 -440.633789 -32.156490 0.000103 -0.000053 82.120995 1306.479614
[BN_LookIK]
38 193.241119 1380.371704 -0.002861 0.000000 89.965736 -31.038179 1393.832153
39 193.241119 1380.371704 -0.002861 0.000000 89.965736 -31.038179 1393.832153
40 193.241119 1380.371704 -0.002861 0.000000 89.965736 -31.038179 1393.832153
[bottomMouth]
38 -435.092926 615.759399 -0.000954 -0.000022 0.000016 73.527184 753.966492
39 -435.092926 615.759399 -0.000954 -0.000022 0.000016 73.527184 753.966492
40 -435.092926 615.759399 -0.000954 -0.000022 0.000016 73.527184 753.966492
[L_Mouth01]
38 554.440979 7.658243 838.222046 150.204178 23.759130 109.605339 1005.027161
39 554.440979 7.658243 838.222046 150.204178 23.759130 109.605339 1005.027161
40 554.440979 7.658243 838.222046 150.204178 23.759130 109.605339 1005.027161
[L_mouthFront]
38 551.629089 934.514771 339.150421 0.000081 2.804060 79.119301 1136.941284
39 551.629089 934.514771 339.150421 0.000081 2.804060 79.119301 1136.941284
40 551.629089 934.514771 339.150421 0.000081 2.804060 79.119301 1136.941284
[mouthGun]
38 55.332661 1627.420898 0.000000 0.000023 0.000009 -11.038128 1628.361328
39 55.332661 1627.420898 0.000000 0.000023 0.000009 -11.038128 1628.361328
40 55.332661 1627.420898 0.000000 0.000023 0.000009 -11.038128 1628.361328
[R_Mouth01]
38 554.442383 7.659197 -838.223938 29.795891 -23.759109 109.605331 1005.029541
39 554.442383 7.659197 -838.223938 29.795891 -23.759109 109.605331 1005.029541
40 554.442383 7.659197 -838.223938 29.795891 -23.759109 109.605331 1005.029541
[R_mouthFront]
38 551.629089 934.514282 -339.151367 0.000029 -2.803930 79.119133 1136.941162
39 551.629089 934.514282 -339.151367 0.000029 -2.803930 79.119133 1136.941162
40 551.629089 934.514282 -339.151367 0.000029 -2.803930 79.119133 1136.941162
[TopMouth]
38 461.269867 -56.106091 -0.008583 -0.000059 -0.000268 92.025169 464.669525
39 461.269867 -56.106091 -0.008583 -0.000059 -0.000268 92.025169 464.669525
40 461.269867 -56.106091 -0.008583 -0.000059 -0.000268 92.025169 464.669525
[weapon_bone]
38 -987.239868 1448.372803 0.001431 0.000000 89.965736 -31.038221 1752.833740
39 -987.239868 1448.372803 0.001431 0.000000 89.965736 -31.038221 1752.833740
40 -987.239868 1448.372803 0.001431 0.000000 89.965736 -31.038221 1752.833740
